<svg width="22" height="22" viewBox="0 0 22 22" fill="none" xmlns="http://www.w3.org/2000/svg">
<path d="M0.168823 11.0022C0.169433 13.5819 1.09017 16.0769 2.76553 18.0386C4.4409 20.0003 6.76103 21.3001 9.30891 21.7044V14.133H6.56049V11.0022H9.31216V8.61882C9.2514 8.061 9.31421 7.49664 9.49613 6.96583C9.67805 6.43502 9.97462 5.95078 10.3648 5.54749C10.7549 5.14421 11.2291 4.83178 11.7536 4.63239C12.2781 4.43301 12.84 4.35155 13.3996 4.39382C14.2121 4.40682 15.0246 4.4794 15.8262 4.61049V7.2744H14.4569C14.2242 7.24392 13.9876 7.26613 13.7646 7.33938C13.5416 7.41264 13.3379 7.53507 13.1686 7.69762C12.9993 7.86018 12.8686 8.05871 12.7864 8.27854C12.7041 8.49837 12.6723 8.73387 12.6932 8.96765V11.0022H15.6952L15.2152 14.1341H12.6932V21.7044C14.7382 21.3812 16.6477 20.4789 18.1957 19.1042C19.7437 17.7294 20.8653 15.9399 21.4279 13.9475C21.9904 11.9551 21.9703 9.84325 21.3699 7.86193C20.7694 5.88061 19.6138 4.11284 18.0399 2.76789C16.466 1.42295 14.5396 0.557161 12.4889 0.27304C10.4382 -0.0110806 8.34899 0.298362 6.46868 1.16473C4.58837 2.0311 2.99569 3.41811 1.87919 5.16155C0.7627 6.905 0.169152 8.93185 0.168823 11.0022Z" fill="#3F3232" fill-opacity="0.78"/>
</svg>
