<svg width="33" height="23" viewBox="0 0 33 23" fill="none" xmlns="http://www.w3.org/2000/svg">
<path d="M32.7695 11.8574C32.662 11.6676 32.5168 11.5017 32.3428 11.37C32.1688 11.2383 31.9697 11.1437 31.7578 11.0918C30.3291 10.7453 28.844 10.6988 27.3964 10.9551C28.0117 8.24805 27.6152 6.12891 27.205 4.89844C27.0816 4.51128 26.819 4.18369 26.4679 3.9791C26.1168 3.77451 25.7023 3.70749 25.3046 3.79102C23.8942 4.11023 22.5607 4.70495 21.3808 5.54102C20.5462 3.53958 19.203 1.79104 17.4843 0.46875C17.2003 0.255761 16.8549 0.140625 16.4999 0.140625C16.145 0.140625 15.7996 0.255761 15.5156 0.46875C13.7969 1.79104 12.4537 3.53958 11.6191 5.54102C10.4392 4.70495 9.10569 4.11023 7.69526 3.79102C7.29759 3.70749 6.88308 3.77451 6.532 3.9791C6.18092 4.18369 5.91825 4.51128 5.79487 4.89844C5.38471 6.12891 4.98822 8.24805 5.60346 10.9551C4.15586 10.6988 2.67084 10.7453 1.24213 11.0918C1.03019 11.1437 0.831106 11.2383 0.657117 11.37C0.483129 11.5017 0.337916 11.6676 0.230412 11.8574C0.01363 12.2392 -0.0452509 12.6906 0.0663497 13.1152C0.531193 14.7559 1.95307 17.9004 6.25971 20.3887C10.5663 22.877 14.4355 22.8906 16.4999 22.8906C18.5644 22.8906 22.4062 22.8906 26.7402 20.3887C31.0742 17.8867 32.4687 14.7559 32.9335 13.1152C33.0451 12.6906 32.9863 12.2392 32.7695 11.8574ZM25.5371 4.87109C25.6674 4.84061 25.8044 4.86024 25.9209 4.92609C26.0374 4.99194 26.1249 5.0992 26.166 5.22656C26.5624 6.45703 26.9589 8.64453 26.1249 11.4609C26.1113 11.4883 26.1113 11.5156 26.0976 11.543C25.7698 12.6249 25.3107 13.6626 24.7304 14.6328C23.5607 16.6377 22.0037 18.3898 20.1503 19.7871L19.8085 20.0332C21.1894 18.2148 22.5156 15.4258 22.5156 11.4062C22.5294 9.77286 22.2801 8.14789 21.7773 6.59375C22.8936 5.75833 24.1754 5.171 25.5371 4.87109ZM16.1718 1.34375C16.2665 1.27275 16.3816 1.23438 16.4999 1.23438C16.6183 1.23438 16.7334 1.27275 16.8281 1.34375C18.2089 2.38281 21.4218 5.41797 21.4218 11.4062C21.4218 14.5645 20.5468 17.2715 18.8378 19.4727C18.1812 20.3343 17.3921 21.0865 16.4999 21.7012C15.6078 21.0865 14.8187 20.3343 14.1621 19.4727C12.4531 17.2715 11.5781 14.5645 11.5781 11.4062C11.5781 5.41797 14.791 2.38281 16.1718 1.34375ZM6.83393 5.22656C6.87502 5.0992 6.9625 4.99194 7.07901 4.92609C7.19551 4.86024 7.33252 4.84061 7.46283 4.87109C8.82447 5.171 10.1063 5.75833 11.2226 6.59375C10.7198 8.14789 10.4705 9.77286 10.4843 11.4062C10.4843 15.4258 11.8105 18.2148 13.1913 20.0332L12.8496 19.7871C10.9961 18.3898 9.43923 16.6377 8.26947 14.6328C7.68894 13.6579 7.2298 12.6157 6.90229 11.5293L6.87494 11.4609C6.04096 8.64453 6.43744 6.45703 6.83393 5.22656ZM1.11908 12.8145C1.10041 12.7459 1.09563 12.6743 1.10502 12.6039C1.11441 12.5334 1.13779 12.4656 1.17377 12.4043C1.24943 12.282 1.36553 12.1901 1.5019 12.1445C2.95874 11.8078 4.47269 11.8031 5.93158 12.1309C6.2862 13.1918 6.74891 14.2134 7.31244 15.1797C9.07611 18.2422 11.6464 20.4297 13.7246 21.6875C11.2837 21.4485 8.92359 20.6835 6.80658 19.4453C2.82807 17.1484 1.54291 14.3047 1.11908 12.8145ZM31.8808 12.8145C31.457 14.3047 30.1718 17.1484 26.1933 19.4453C24.0763 20.6835 21.7162 21.4485 19.2753 21.6875C21.3535 20.4297 23.9238 18.2422 25.6874 15.1797C26.251 14.2134 26.7137 13.1918 27.0683 12.1309C28.5272 11.8031 30.0411 11.8078 31.498 12.1445C31.6344 12.1901 31.7505 12.282 31.8261 12.4043C31.8621 12.4656 31.8855 12.5334 31.8949 12.6039C31.9043 12.6743 31.8995 12.7459 31.8808 12.8145Z" fill="#3F3232"/>
</svg>
