<svg width="18" height="14" viewBox="0 0 18 14" fill="none" xmlns="http://www.w3.org/2000/svg">
<path d="M10.875 12H1.5L1.49812 2.56625L8.64437 7.51375C8.74887 7.58606 8.87293 7.62479 9 7.62479C9.12707 7.62479 9.25113 7.58606 9.35563 7.51375L16.5 2.56875V8.25H17.75V2C17.7495 1.66863 17.6176 1.35098 17.3833 1.11666C17.149 0.882351 16.8314 0.750496 16.5 0.75H1.5C1.16858 0.750331 0.850831 0.882133 0.616482 1.11648C0.382133 1.35083 0.250331 1.66858 0.25 2V12C0.250496 12.3314 0.382351 12.649 0.616664 12.8833C0.850977 13.1176 1.16863 13.2495 1.5 13.25H10.875V12ZM15.1244 2L9 6.24L2.87563 2H15.1244Z" fill="#75464A"/>
</svg>
